<?xml version="1.0" encoding="UTF-8"?>
<!DOCTYPE svg PUBLIC "-//W3C//DTD SVG 1.1//EN" "http://www.w3.org/Graphics/SVG/1.1/DTD/svg11.dtd">
<!-- Creator: CorelDRAW -->
<svg xmlns="http://www.w3.org/2000/svg" xml:space="preserve" width="27.94cm" height="21.59cm" version="1.1" style="shape-rendering:geometricPrecision; text-rendering:geometricPrecision; image-rendering:optimizeQuality; fill-rule:evenodd; clip-rule:evenodd"
viewBox="0 0 27940 21590"
 xmlns:xlink="http://www.w3.org/1999/xlink"
 xmlns:xodm="http://www.corel.com/coreldraw/odm/2003">
 <defs>
  <style type="text/css">
   <![CDATA[
    .fil0 {fill:#001446}
    .fil1 {fill:#B80113}
   ]]>
  </style>
 </defs>
 <g id="Capa_x0020_1">
  <metadata id="CorelCorpID_0Corel-Layer"/>
  <g id="_1999572829792">
   <path class="fil0" d="M9499.87 6990.7c53.69,107.18 119.46,159.33 175.87,233.86 -137.2,172.09 -822.75,1343.73 -1001.34,1636.62 -212.16,347.96 -157.51,235.41 -472.91,432.34 26.03,159.38 249.9,335.02 395.51,387.94 383.06,139.26 9113.9,60.01 10253.6,43.68 205.93,-2.96 589.61,18.18 765.63,-45.65 154.97,-56.23 380.13,-235.5 413.58,-380.96 -68.12,-48.45 -190.09,-98.81 -272.32,-153.91 -95.59,-64.01 -127.07,-171.99 -186.01,-267.85 -138.55,-225.27 -222.42,-363.64 -344.95,-564.29 -235.71,-385.91 -472.44,-733.58 -696.73,-1087.92 42.16,-84.31 122.39,-132.7 173.28,-231.62 -2513.33,-305.96 -4455.76,-412.6 -6971.53,-217.89 -375.51,29.07 -743.39,53.61 -1121.76,89.72 -370.2,35.33 -757.82,93.82 -1109.92,125.93zm1663.09 158.13c90.07,95.29 389.25,56.35 536.69,107.75 174.83,60.94 314.53,161.18 410.86,271.01 88.46,100.84 184.17,251.46 257.57,399.87 75.73,153.22 114.25,395.07 173.55,508.75 299.06,80.44 2802.71,73.67 3127.47,0 77.49,-152.65 195.35,-963.71 807.31,-1165.38 172.33,-56.76 479.77,-55.3 576.52,-103.51 -5.1,-176.89 -371.37,-156.08 -599.69,-173.01 -252.34,-18.73 -509.04,-34.91 -757.16,-50.42 -543.15,-33.96 -1022.53,-11.71 -1565.84,-12.7 -1150.08,-2.06 -1595.44,-1.85 -2701.34,90.58 -124.08,10.34 -239.52,13.12 -265.94,127.06zm-1982.73 1576.31c300.68,-66.25 599.47,-296.06 867.35,-367.43 -68.48,472.58 -1001.31,477.89 -860.46,1088.78 372.44,74.39 310.09,41.5 702.36,43.38l8506.75 1.05c203.01,-0.24 471.4,27.6 625.83,-48.36 157,-572.88 -741.51,-607.7 -851.49,-1080.94 245.43,43.26 608.89,338.77 849.88,346.61 -75.1,-337.94 -526.72,-926.47 -718.19,-1261.04 -69.08,37.65 -24.9,5.36 -74.8,63.32l-167.5 286.87c-59.6,112.55 -139.26,290.3 -199.34,375.78 -627.53,19.77 -1695.38,-262.57 -1888.9,-16.16 -82.92,105.6 -113.36,249.16 -147.52,380.49 -33.75,129.69 6.94,94.72 -116.99,139.32 -74.21,26.74 -126.83,38.55 -203.58,70.6 -493.06,205.9 -377.56,259.98 -515.15,543.24 -735.76,33.99 -1025.73,28.72 -1767.12,15.81 -136.79,-212.91 -41.8,-313.65 -290.3,-453.57 -147.16,-82.85 -374.2,-131.33 -517.6,-213.62 -91.3,-134.49 -83.16,-371.39 -186.34,-496.76 -198.71,-241.49 -1485.37,123.34 -1883.27,12.76 -144.75,-257.95 -230.94,-493.21 -403.9,-700.75 -85.26,37.77 -163.65,197.13 -215.22,286.39 -145.17,251.31 -472.11,747.56 -544.5,984.23z"/>
   <path class="fil0" d="M3543.24 16282.85c25.28,60.55 51.19,68.57 89.95,110.67 -375.84,-33.96 -428.4,-271.87 -551.21,33.36 -1.97,4.89 -4.26,14.16 -8.02,20.45 -164.69,-2.41 -162.93,-24.98 -274.17,66.55 40.43,99.88 108.88,87.5 201.99,145.97l79.43 66.31c-86.17,29.63 -105.22,21.79 -151.67,90.63 314.45,235.41 1940.22,537.31 2450.58,616.98 916.16,142.98 1828.08,235.71 2762.9,321.06 4327.53,395.1 10265.32,332.76 14581.96,-316.17 449.63,-67.59 862.38,-145.74 1289.97,-249.7 236.25,-57.42 1037.29,-269.37 1166.87,-372.17 -38.34,-64.69 -61.72,-50.95 -124.3,-100.98 5.01,-3.67 12.91,-15.32 15.3,-10.64l257.95 -166.07c-75.34,-108.34 -113.24,-104.82 -270.48,-92.51 -4.08,-6.05 -7.63,-23.79 -9.15,-19.95l-25.13 -58.19c-99.64,-209.03 -198.41,-17.12 -523.33,22.27l69.53 -61.06c3.34,-3.67 8.61,-10.35 11.54,-13.78l20.69 -29.18c-171.38,-85.66 -335.38,38.9 -524.79,102.59 -2403.35,807.93 -7618.47,993.2 -9999.91,993.58 -2330.01,0.42 -5890.56,-170 -8220.45,-572.22 -517.9,-89.41 -1532.21,-305.48 -2029.18,-523.12 -158.76,-69.53 -129.19,-43.38 -286.87,-4.68z"/>
   <path class="fil1" d="M2306.4 9583.07c73.01,-45.67 803.28,-954.35 1020.33,-1171.78 210.04,-210.4 605.1,-627.62 824.21,-816.49 1428.78,-1231.6 2612.79,-1993.98 4452.12,-2666.26 1745.71,-638.08 3715.68,-948.83 5628.14,-952.83 3402.36,-7.03 6561.17,1011.15 9021.55,2986.16l879.28 761.66c104.98,99.85 182.46,168.87 283.62,271.67 233.12,236.96 341.88,350.91 542.5,568.35 180.26,195.37 343.07,387.7 499.93,585.87 166.89,210.88 356.6,429.72 478.93,619.22 -43.53,-145.35 -328.58,-558.22 -423.51,-699.8 -1097.13,-1636.17 -2310.27,-2839.74 -4050.02,-3928.61 -4081.43,-2554.51 -10392.67,-2467.69 -14547.7,-106.92 -1547.8,879.43 -2625.82,1873.2 -3672.35,3168.35 -150.66,186.43 -864.05,1139.08 -937.03,1381.41z"/>
   <path class="fil0" d="M22924.77 12642.12c-36.35,437.77 -290.96,793.69 -515.52,1044.07 -630.09,702.33 -1011.62,480.36 -2068.95,1009.74 -324.38,162.4 -1860.47,1026.5 -1483.44,1483.11 183.63,222.38 1059.45,135.29 1383.95,119.22 901.31,-44.57 2010.04,-88.01 2547.85,-563.48 43.92,-285.41 -280.93,-654.9 -198.59,-1102.23 62.49,-339.38 270,-642.59 410.96,-938.17 237.71,-498.52 534.36,-1589.54 256.01,-2194.76 -201.18,-22.54 -1687.51,539.07 -1923.81,633.31 -614.53,245.04 -1172.09,511.01 -1748.9,824.3 -1484.78,806.41 2048.95,113.98 2383.22,35.78 170.66,-39.92 324.56,-86.97 483.26,-149.1 163.68,-64.07 328.08,-154.35 473.96,-201.79z"/>
   <path class="fil0" d="M8602.1 16323.07c285.09,-0.51 777.82,20.66 799.47,-266.15 39.98,-529.68 -1285.08,-1258.79 -1735.36,-1461.49 -565.34,-254.53 -1110.31,-303.33 -1541.25,-602.46 -289.46,-200.88 -786.94,-787.78 -819.62,-1352.64 809.64,309.39 765.39,354.26 1750.33,502.85 310.64,46.84 631.41,103.1 960.67,146.51 221.82,29.25 819.3,150.05 960.35,-6.89 -1.61,-160.67 -233.27,-261.2 -368.36,-335.2 -729.19,-399.51 -1738.16,-862.67 -2517.09,-1117.73 -224.05,-73.38 -949.55,-333.47 -1121.93,-337.86 -216.69,578.16 -65.44,1381.53 136.46,1926.65 197.1,532.04 668.85,1036.02 490.77,1682.21 -41,148.77 -85.66,261.02 -139.12,412.8 -79.84,226.62 6.53,264.46 152.68,356.13 630.66,395.64 2239.97,454.61 2992,453.27z"/>
   <path class="fil0" d="M10060.11 14772.14c194.65,130.91 1846.59,171.01 2227.68,201.99 873.38,71.02 1412.15,670.07 1789.47,646.01 362.9,-23.16 829.2,-578.18 1795.32,-650.72 487.02,-36.58 1915.44,-51.64 2268.98,-175.1 -2.38,-408.34 -1484,-251.04 -1865.71,-241.14 -709.22,18.4 -1431.17,53.34 -2145.61,53.73 -727.7,0.38 -1446.25,-33.37 -2171.87,-50.24 -486.59,-11.3 -1416.38,-119.5 -1769.77,60.88 -81.54,41.65 -109.18,58.94 -128.49,154.59z"/>
   <path class="fil0" d="M24309.4 11818.75c-1.67,1809.09 -1142.45,2116.44 -1049.73,3257.4 67.62,831.79 753.07,1206.34 1019.97,783.58 500.04,-791.99 257.15,-4097.48 64.49,-4889.17 -40.91,-168.06 -131.42,-599.41 -321.82,-612.92 -99.31,196.63 98.63,413.97 171.14,636.57 77.16,236.87 116.18,561.16 115.95,824.54z"/>
   <path class="fil0" d="M3657.78 13535.24c-0.18,474.07 -37.8,2317.33 444.23,2481.28 528.73,179.84 1118.87,-750.93 729.44,-1662.38 -358.19,-838.34 -1009.96,-1302.82 -915.3,-2686.34 28.18,-411.86 101.4,-700.58 282.4,-1045.79 155.63,-296.8 -104.82,-553.71 -326.91,404.93 -175.07,755.67 -213.53,1729.64 -213.86,2508.3z"/>
   <rect class="fil0" x="10235.14" y="8642.27" width="1966.45" height="393.4" rx="236.9" ry="238.51"/>
   <rect class="fil0" x="15988.86" y="8642.27" width="1966.45" height="393.4" rx="236.9" ry="238.51"/>
   <path class="fil0" d="M7686.66 10031.24c139.17,297.96 369.19,549.86 791.42,704.18 1199.15,410.24 2013.73,954.62 2302.45,1682.23 -154.58,-868.9 -796.45,-1559.31 -2251.08,-1952.14 -311.98,-74.98 -598.4,-207.27 -842.79,-434.27z"/>
   <path class="fil0" d="M20524.61 10031.24c-139.18,297.96 -369.19,549.86 -791.42,704.18 -1199.16,410.24 -2013.74,954.62 -2302.46,1682.23 154.59,-868.9 796.46,-1559.31 2251.09,-1952.14 311.98,-74.98 598.4,-207.27 842.79,-434.27z"/>
   <path class="fil0" d="M9787.63 15595.96c99.02,35.3 197.13,64.91 292.9,80.65 2598.48,260.19 5211.36,279.54 7839.66,39.35 142.18,-12.88 299.39,-54.14 436.03,-94.84 146.3,-55.81 305.45,32.35 96.96,120.54 -213.26,90.22 -444.86,143.56 -692.02,165.8 -2478.48,218.63 -4956.87,204.91 -7435.32,-24.21 -173.25,-14.85 -351.42,-53.01 -532.12,-102.53 -147.52,-39 -217.32,-229.09 -6.09,-184.76z"/>
  </g>
 </g>
</svg>
